HIERARCHY
ROOT newVegas:Hips
{
	OFFSET 0.000000 96.479958 0.000000
	CHANNELS 6 Xposition Yposition Zposition Xrotation Yrotation Zrotation
	JOINT newVegas:Pelvis
	{
		OFFSET 0.000000 0.000000 0.000000
		CHANNELS 3 Xrotation Yrotation Zrotation
		JOINT newVegas:LeftUpLeg
		{
			OFFSET 18.735201 -5.666702 -4.541200
			CHANNELS 3 Xrotation Yrotation Zrotation
			JOINT newVegas:LeftLeg
			{
				OFFSET -0.021200 -31.938179 0.493100
				CHANNELS 3 Xrotation Yrotation Zrotation
				JOINT newVegas:LeftFoot
				{
					OFFSET 0.021200 -31.938179 -4.336299
					CHANNELS 3 Xrotation Yrotation Zrotation
					JOINT newVegas:LeftToeBase
					{
						OFFSET 0.943001 -26.722000 15.023500
						CHANNELS 3 Xrotation Yrotation Zrotation
						End Site
						{
							OFFSET 0.000000 30.670183 0.000000
						}
					}
				}
				JOINT newVegas:Left_PantLeg
				{
					OFFSET 0.663870 -9.044666 -1.108900
					CHANNELS 3 Xrotation Yrotation Zrotation
					End Site
					{
						OFFSET 1.415995 20.635357 0.000000
					}
				}
			}
		}
		JOINT newVegas:RightUpLeg
		{
			OFFSET -18.735201 -5.666702 -4.541200
			CHANNELS 3 Xrotation Yrotation Zrotation
			JOINT newVegas:RightLeg
			{
				OFFSET 0.018946 -31.938133 0.493100
				CHANNELS 3 Xrotation Yrotation Zrotation
				JOINT newVegas:RightFoot
				{
					OFFSET -0.018946 -31.938126 -4.336299
					CHANNELS 3 Xrotation Yrotation Zrotation
					JOINT newVegas:RightToeBase
					{
						OFFSET -0.943001 -26.722004 15.023500
						CHANNELS 3 Xrotation Yrotation Zrotation
						End Site
						{
							OFFSET 0.000000 30.670187 0.000000
						}
					}
				}
				JOINT newVegas:Right_PantLeg
				{
					OFFSET -0.661674 -9.044716 -1.108900
					CHANNELS 3 Xrotation Yrotation Zrotation
					End Site
					{
						OFFSET -1.415958 20.635269 0.000000
					}
				}
			}
		}
	}
	JOINT newVegas:Spine
	{
		OFFSET 0.000000 10.199997 -0.299500
		CHANNELS 3 Xrotation Yrotation Zrotation
		JOINT newVegas:Spine1
		{
			OFFSET 0.000000 11.900002 -1.516600
			CHANNELS 3 Xrotation Yrotation Zrotation
			JOINT newVegas:Spine2
			{
				OFFSET 0.000000 13.600006 -2.842500
				CHANNELS 3 Xrotation Yrotation Zrotation
				JOINT newVegas:Neck
				{
					OFFSET 0.000000 9.624100 -2.890100
					CHANNELS 3 Xrotation Yrotation Zrotation
					JOINT newVegas:Head
					{
						OFFSET 0.000000 14.068802 -1.351900
						CHANNELS 3 Xrotation Yrotation Zrotation
						JOINT newVegas:Hair_Back
						{
							OFFSET 0.000000 3.231903 -17.524799
							CHANNELS 3 Xrotation Yrotation Zrotation
							End Site
							{
								OFFSET 0.000000 19.849884 0.000000
							}
						}
						JOINT newVegas:Hair_Front
						{
							OFFSET 0.000000 31.260406 4.573800
							CHANNELS 3 Xrotation Yrotation Zrotation
							JOINT newVegas:Hair_Front1
							{
								OFFSET 0.000000 2.284103 11.993300
								CHANNELS 3 Xrotation Yrotation Zrotation
								JOINT newVegas:Hair_Front2
								{
									OFFSET 0.000000 2.284103 11.993300
									CHANNELS 3 Xrotation Yrotation Zrotation
									End Site
									{
										OFFSET 0.000000 12.208862 0.000000
									}
								}
							}
						}
						JOINT newVegas:Jowel
						{
							OFFSET 0.000000 -7.458206 6.864100
							CHANNELS 3 Xrotation Yrotation Zrotation
							End Site
							{
								OFFSET 0.000000 19.849884 0.000000
							}
						}
					}
				}
				JOINT newVegas:LeftShoulder
				{
					OFFSET 15.263000 10.923401 -0.547700
					CHANNELS 3 Xrotation Yrotation Zrotation
					JOINT newVegas:LeftArm
					{
						OFFSET 25.438599 -2.830597 -13.032500
						CHANNELS 3 Xrotation Yrotation Zrotation
						JOINT newVegas:LeftForeArm
						{
							OFFSET 29.960503 0.000000 0.000000
							CHANNELS 3 Xrotation Yrotation Zrotation
							JOINT newVegas:LeftHand
							{
								OFFSET 27.849251 0.000000 0.000000
								CHANNELS 3 Xrotation Yrotation Zrotation
								JOINT newVegas:LeftHandThumb1
								{
									OFFSET 4.487587 -3.305161 6.305391
									CHANNELS 3 Xrotation Yrotation Zrotation
									JOINT newVegas:LeftHandThumb2
									{
										OFFSET 5.480453 -3.164139 3.164143
										CHANNELS 3 Xrotation Yrotation Zrotation
										JOINT newVegas:LeftHandThumb3
										{
											OFFSET 5.159721 -2.978973 2.978967
											CHANNELS 3 Xrotation Yrotation Zrotation
											End Site
											{
												OFFSET 2.494507 5.926697 1.738678
											}
										}
									}
								}
								JOINT newVegas:LeftHandIndex1
								{
									OFFSET 18.578728 -0.527832 5.208049
									CHANNELS 3 Xrotation Yrotation Zrotation
									JOINT newVegas:LeftHandIndex2
									{
										OFFSET 3.192009 0.000000 0.000000
										CHANNELS 3 Xrotation Yrotation Zrotation
										JOINT newVegas:LeftHandIndex3
										{
											OFFSET 3.835129 0.000000 0.000000
											CHANNELS 3 Xrotation Yrotation Zrotation
											End Site
											{
												OFFSET -0.034599 3.816971 0.371180
											}
										}
									}
								}
								JOINT newVegas:LeftHandMiddle1
								{
									OFFSET 18.476105 0.000000 0.000000
									CHANNELS 3 Xrotation Yrotation Zrotation
									JOINT newVegas:LeftHandMiddle2
									{
										OFFSET 3.324875 0.000000 0.000000
										CHANNELS 3 Xrotation Yrotation Zrotation
										JOINT newVegas:LeftHandMiddle3
										{
											OFFSET 4.596550 0.000000 0.000000
											CHANNELS 3 Xrotation Yrotation Zrotation
											End Site
											{
												OFFSET 0.057701 4.578827 0.399218
											}
										}
									}
								}
								JOINT newVegas:LeftHandRing1
								{
									OFFSET 17.732719 0.121887 -4.201567
									CHANNELS 3 Xrotation Yrotation Zrotation
									JOINT newVegas:LeftHandRing2
									{
										OFFSET 2.733170 0.000000 0.000000
										CHANNELS 3 Xrotation Yrotation Zrotation
										JOINT newVegas:LeftHandRing3
										{
											OFFSET 3.178268 0.000000 0.000000
											CHANNELS 3 Xrotation Yrotation Zrotation
											End Site
											{
												OFFSET 0.119102 3.170624 0.185394
											}
										}
									}
								}
								JOINT newVegas:LeftHandPinky1
								{
									OFFSET 15.989624 -0.606689 -7.535461
									CHANNELS 3 Xrotation Yrotation Zrotation
									JOINT newVegas:LeftHandPinky2
									{
										OFFSET 2.538986 0.000000 0.000000
										CHANNELS 3 Xrotation Yrotation Zrotation
										JOINT newVegas:LeftHandPinky3
										{
											OFFSET 2.593102 0.000000 0.000000
											CHANNELS 3 Xrotation Yrotation Zrotation
											End Site
											{
												OFFSET -0.150902 2.584198 0.152708
											}
										}
									}
								}
							}
							JOINT newVegas:Left_Sleeve
							{
								OFFSET 0.267448 -0.649796 0.577675
								CHANNELS 3 Xrotation Yrotation Zrotation
								End Site
								{
									OFFSET 0.000000 15.991241 0.000000
								}
							}
							JOINT newVegas:Left_CapeC
							{
								OFFSET 15.715958 -8.608795 -6.935905
								CHANNELS 3 Xrotation Yrotation Zrotation
								JOINT newVegas:Left_CapeC1
								{
									OFFSET 0.000000 -8.688499 0.000000
									CHANNELS 3 Xrotation Yrotation Zrotation
									End Site
									{
										OFFSET 0.000000 8.688499 0.000000
									}
								}
							}
						}
						JOINT newVegas:Left_CapeB
						{
							OFFSET 26.118385 -8.608795 -7.079235
							CHANNELS 3 Xrotation Yrotation Zrotation
							JOINT newVegas:Left_CapeB1
							{
								OFFSET 0.000000 -8.688499 0.000000
								CHANNELS 3 Xrotation Yrotation Zrotation
								End Site
								{
									OFFSET 0.000000 8.688499 0.000000
								}
							}
						}
						JOINT newVegas:Left_CapeA
						{
							OFFSET 5.115639 -8.608795 -10.395809
							CHANNELS 3 Xrotation Yrotation Zrotation
							JOINT newVegas:Left_CapeA1
							{
								OFFSET 0.000000 -8.688499 0.000000
								CHANNELS 3 Xrotation Yrotation Zrotation
								End Site
								{
									OFFSET 0.000000 8.688499 0.000000
								}
							}
						}
					}
				}
				JOINT newVegas:RightShoulder
				{
					OFFSET -15.263000 10.923401 -0.547700
					CHANNELS 3 Xrotation Yrotation Zrotation
					JOINT newVegas:RightArm
					{
						OFFSET -25.438599 -2.830597 -13.032500
						CHANNELS 3 Xrotation Yrotation Zrotation
						JOINT newVegas:RightForeArm
						{
							OFFSET -29.960503 0.000000 0.000000
							CHANNELS 3 Xrotation Yrotation Zrotation
							JOINT newVegas:RightHand
							{
								OFFSET -27.849251 0.000000 0.000000
								CHANNELS 3 Xrotation Yrotation Zrotation
								JOINT newVegas:RightHandThumb1
								{
									OFFSET -4.487587 -3.305161 6.305391
									CHANNELS 3 Xrotation Yrotation Zrotation
									JOINT newVegas:RightHandThumb2
									{
										OFFSET -5.480453 -3.164139 3.164143
										CHANNELS 3 Xrotation Yrotation Zrotation
										JOINT newVegas:RightHandThumb3
										{
											OFFSET -5.159721 -2.978973 2.978967
											CHANNELS 3 Xrotation Yrotation Zrotation
											End Site
											{
												OFFSET -2.494507 5.926697 1.738678
											}
										}
									}
								}
								JOINT newVegas:RightHandIndex1
								{
									OFFSET -18.578728 -0.527832 5.208049
									CHANNELS 3 Xrotation Yrotation Zrotation
									JOINT newVegas:RightHandIndex2
									{
										OFFSET -3.192009 0.000000 0.000000
										CHANNELS 3 Xrotation Yrotation Zrotation
										JOINT newVegas:RightHandIndex3
										{
											OFFSET -3.835129 0.000000 0.000000
											CHANNELS 3 Xrotation Yrotation Zrotation
											End Site
											{
												OFFSET 0.034599 3.816971 0.371180
											}
										}
									}
								}
								JOINT newVegas:RightHandMiddle1
								{
									OFFSET -18.476105 0.000000 0.000000
									CHANNELS 3 Xrotation Yrotation Zrotation
									JOINT newVegas:RightHandMiddle2
									{
										OFFSET -3.324875 0.000000 0.000000
										CHANNELS 3 Xrotation Yrotation Zrotation
										JOINT newVegas:RightHandMiddle3
										{
											OFFSET -4.596550 0.000000 0.000000
											CHANNELS 3 Xrotation Yrotation Zrotation
											End Site
											{
												OFFSET -0.057701 4.578827 0.399218
											}
										}
									}
								}
								JOINT newVegas:RightHandRing1
								{
									OFFSET -17.732719 0.121887 -4.201567
									CHANNELS 3 Xrotation Yrotation Zrotation
									JOINT newVegas:RightHandRing2
									{
										OFFSET -2.733170 0.000000 0.000000
										CHANNELS 3 Xrotation Yrotation Zrotation
										JOINT newVegas:RightHandRing3
										{
											OFFSET -3.178268 0.000000 0.000000
											CHANNELS 3 Xrotation Yrotation Zrotation
											End Site
											{
												OFFSET -0.119102 3.170624 0.185394
											}
										}
									}
								}
								JOINT newVegas:RightHandPinky1
								{
									OFFSET -15.989624 -0.606689 -7.535461
									CHANNELS 3 Xrotation Yrotation Zrotation
									JOINT newVegas:RightHandPinky2
									{
										OFFSET -2.538986 0.000000 0.000000
										CHANNELS 3 Xrotation Yrotation Zrotation
										JOINT newVegas:RightHandPinky3
										{
											OFFSET -2.593102 0.000000 0.000000
											CHANNELS 3 Xrotation Yrotation Zrotation
											End Site
											{
												OFFSET 0.150902 2.584198 0.152708
											}
										}
									}
								}
							}
							JOINT newVegas:Right_CapeC
							{
								OFFSET -15.715958 -8.608795 -6.935905
								CHANNELS 3 Xrotation Yrotation Zrotation
								JOINT newVegas:Right_CapeC1
								{
									OFFSET 0.000000 -8.688499 0.000000
									CHANNELS 3 Xrotation Yrotation Zrotation
									End Site
									{
										OFFSET 0.000000 8.688499 0.000000
									}
								}
							}
							JOINT newVegas:Right_Sleeve
							{
								OFFSET -0.267448 -0.649994 0.577675
								CHANNELS 3 Xrotation Yrotation Zrotation
								End Site
								{
									OFFSET 0.000000 15.991302 0.000000
								}
							}
						}
						JOINT newVegas:Right_CapeA
						{
							OFFSET -5.115540 -8.608795 -10.395824
							CHANNELS 3 Xrotation Yrotation Zrotation
							JOINT newVegas:Right_CapeA1
							{
								OFFSET 0.000000 -8.688499 0.000000
								CHANNELS 3 Xrotation Yrotation Zrotation
								End Site
								{
									OFFSET 0.000000 8.688499 0.000000
								}
							}
						}
						JOINT newVegas:Right_CapeB
						{
							OFFSET -26.118187 -8.608795 -7.079266
							CHANNELS 3 Xrotation Yrotation Zrotation
							JOINT newVegas:Right_CapeB1
							{
								OFFSET 0.000000 -8.688499 0.000000
								CHANNELS 3 Xrotation Yrotation Zrotation
								End Site
								{
									OFFSET 0.000000 8.688499 0.000000
								}
							}
						}
					}
				}
				JOINT newVegas:Left_Collar
				{
					OFFSET 18.625099 8.655502 8.828100
					CHANNELS 3 Xrotation Yrotation Zrotation
					JOINT newVegas:Left_Collar1
					{
						OFFSET 14.783401 10.540405 -1.259500
						CHANNELS 3 Xrotation Yrotation Zrotation
						End Site
						{
							OFFSET 0.000000 18.199875 0.000000
						}
					}
				}
				JOINT newVegas:Collar_Back
				{
					OFFSET 0.000000 15.630707 -20.132601
					CHANNELS 3 Xrotation Yrotation Zrotation
					End Site
					{
						OFFSET 0.000000 22.523010 0.000000
					}
				}
				JOINT newVegas:Left_Peck
				{
					OFFSET 17.239599 -5.132599 25.482599
					CHANNELS 3 Xrotation Yrotation Zrotation
					End Site
					{
						OFFSET 0.000000 22.523010 0.000000
					}
				}
				JOINT newVegas:Right_Peck
				{
					OFFSET -17.239599 -5.132202 25.482599
					CHANNELS 3 Xrotation Yrotation Zrotation
					End Site
					{
						OFFSET 0.000000 22.523010 0.000000
					}
				}
				JOINT newVegas:Right_Collar
				{
					OFFSET -18.625099 8.655792 8.828100
					CHANNELS 3 Xrotation Yrotation Zrotation
					JOINT newVegas:Right_Collar1
					{
						OFFSET -14.783401 10.539993 -1.259500
						CHANNELS 3 Xrotation Yrotation Zrotation
						End Site
						{
							OFFSET 0.000000 18.199631 0.000000
						}
					}
				}
			}
		}
		JOINT newVegas:Belly
		{
			OFFSET 0.000000 -6.540398 9.014299
			CHANNELS 3 Xrotation Yrotation Zrotation
			End Site
			{
				OFFSET 0.000000 11.566666 0.000000
			}
		}
	}
	JOINT newVegas:ElvisFacialAnim_Joint
	{
		OFFSET 1.000000 -95.330101 -8.825800
		CHANNELS 3 Xrotation Yrotation Zrotation
		End Site
		{
			OFFSET 0.000000 35.315800 0.000000
		}
	}
}
MOTION
Frames: 4
Frame Time: 0.016667
-0.035493 86.149033 -0.682301 -60.463956 -92.874044 -60.921565 0.000000 -0.000000 -0.000000 -31.506317 30.946317 42.839356 35.063261 -11.573621 1.058883 -9.711261 8.257453 -23.106672 -0.000000 0.000003 -0.000000 0.000001 0.000002 0.000001 -38.051831 -8.665541 -25.598046 22.011507 11.153709 -3.940124 5.914235 13.611747 23.364334 0.000000 0.000000 -0.000000 0.000001 0.000000 -0.000000 5.385781 -2.178367 -8.023786 2.771438 -0.553950 -1.077813 2.777688 -0.510268 -1.087487 -2.410724 1.279837 0.846269 -2.410723 1.279827 0.846272 -0.000001 0.000000 0.000001 -2.410724 1.279835 0.846272 -2.410722 1.279836 0.846271 -0.000000 0.000000 -0.000000 -0.000001 0.000000 -0.000000 5.516883 -2.188420 12.208354 -41.899358 5.599302 2.227378 0.045079 -12.980547 -0.290003 -49.394162 -3.550619 -0.088071 40.109944 -15.297216 -0.360452 5.639923 28.097752 11.338744 0.000002 0.000001 -0.000001 6.882284 2.840018 -61.140500 8.247962 7.640047 -89.897932 -0.000001 -0.000001 -0.000001 -2.345525 4.688827 -62.655265 8.754161 9.897053 -87.051266 -0.000001 -0.000002 -0.000000 -9.042486 10.045584 -60.766178 8.524044 9.508857 -66.892940 -0.000001 -0.000001 -0.000000 -17.946785 14.755020 -51.485915 8.868324 8.666963 -84.811989 0.000000 -0.000003 0.000001 -0.000001 0.000001 0.000001 -0.000001 0.000001 0.000001 -0.000002 0.000001 0.000001 -0.000001 0.000000 -0.000000 -0.000001 0.000000 -0.000000 -0.000001 0.000000 -0.000000 -0.000001 0.000000 -0.000000 -2.478559 1.878755 -16.638413 -51.925892 54.163772 47.616619 1.362554 130.520339 0.246822 -70.593338 -0.218312 -24.603858 0.277504 -1.521515 -1.570516 7.168988 -41.689644 -15.773526 0.000003 0.000002 0.000001 6.412837 -12.738408 14.389574 9.941757 -7.465160 101.743242 -0.000001 -0.000001 -0.000001 2.653210 -11.302323 44.730946 9.916093 -9.880655 94.351188 0.000000 0.000001 -0.000002 2.140174 -7.454460 61.765032 9.609271 -8.992481 89.388694 0.000001 0.000001 -0.000001 -4.886635 -23.798157 68.396176 13.518261 -7.949252 112.864942 -0.000001 -0.000000 -0.000000 -0.000000 -0.000002 -0.000000 -0.000000 -0.000002 0.000000 -0.000000 -0.000002 -0.000000 0.000000 0.000001 -0.000000 0.000000 0.000002 -0.000000 0.000000 0.000001 -0.000000 0.000000 0.000002 -0.000000 0.000000 -0.000000 0.000001 0.000000 -0.000000 0.000001 0.000000 -0.000000 0.000001 0.000000 -0.000000 0.000001 0.000000 -0.000000 0.000001 0.000000 -0.000000 0.000001 0.000000 -0.000000 0.000001 0.000000 -0.000000 0.000001 0.000000 -0.000000 -0.000000 
-0.034848 86.152214 -0.682067 -60.444647 -92.868532 -60.898315 -0.000000 -0.000000 0.000000 -31.490734 30.952819 42.823199 35.048006 -11.568498 1.068260 -9.703036 8.257577 -23.111805 0.000000 0.000002 -0.000000 -0.000001 -0.000004 -0.000003 -38.041510 -8.663206 -25.606009 22.001407 11.152371 -3.929590 5.919539 13.611573 23.360295 0.000000 -0.000000 -0.000000 0.000000 0.000000 -0.000000 5.385741 -2.178365 -8.023483 2.771401 -0.556390 -1.077454 2.777601 -0.514367 -1.086865 -2.408334 1.278340 0.846226 -2.408336 1.278343 0.846221 0.000000 -0.000000 -0.000000 -2.408335 1.278327 0.846226 -2.408199 1.278349 0.846219 0.000000 -0.000000 0.000000 0.000000 -0.000000 -0.000000 5.518629 -2.184562 12.217436 -41.910205 5.611432 2.220990 0.057266 -13.133527 -0.286647 -49.443340 -3.460262 0.032226 40.109944 -15.297213 -0.360451 5.639923 28.097744 11.338741 0.000002 -0.000001 -0.000001 6.882286 2.840017 -61.140500 8.247962 7.640046 -89.897932 -0.000001 0.000002 0.000002 -2.345522 4.688827 -62.655265 8.754160 9.897052 -87.051266 0.000002 -0.000001 -0.000000 -9.042484 10.045589 -60.766178 8.524046 9.508858 -66.892940 0.000002 -0.000001 0.000000 -17.946786 14.755022 -51.485915 8.868323 8.666963 -84.811989 -0.000001 0.000000 -0.000003 -0.000001 -0.000000 -0.000000 -0.000001 -0.000000 -0.000000 -0.000001 0.000000 0.000000 -0.000001 0.000000 -0.000001 -0.000001 0.000000 -0.000001 -0.000001 0.000000 -0.000001 -0.000001 0.000000 -0.000001 -2.479251 1.875577 -16.638718 -51.759962 54.134474 47.334232 -0.786862 130.482732 1.826153 -72.076309 -0.111464 -24.458175 0.277507 -1.521517 -1.570512 7.168996 -41.689648 -15.773526 0.000002 0.000002 0.000001 6.412836 -12.738407 14.389576 9.941757 -7.465158 101.743242 -0.000003 0.000001 -0.000001 2.653212 -11.302325 44.730946 9.916092 -9.880656 94.351188 0.000000 -0.000001 0.000002 2.140173 -7.454458 61.765039 9.609271 -8.992476 89.388701 0.000002 0.000001 0.000001 -4.886635 -23.798158 68.396176 13.518261 -7.949255 112.864942 -0.000001 -0.000002 -0.000002 0.000000 0.000001 -0.000000 0.000000 0.000001 -0.000000 0.000000 0.000001 -0.000000 -0.000000 0.000002 -0.000000 -0.000000 0.000003 -0.000000 -0.000000 0.000002 -0.000000 -0.000000 0.000003 0.000000 0.000000 0.000000 0.000001 0.000000 0.000000 0.000001 0.000000 0.000000 0.000001 0.000000 0.000000 0.000001 0.000000 0.000000 0.000001 0.000000 0.000000 0.000001 0.000000 0.000000 0.000001 0.000001 -0.000000 -0.000001 -0.000000 -0.000000 0.000000 
-0.034115 86.155876 -0.681207 -60.459687 -92.861606 -60.909236 -0.000000 0.000000 0.000000 -31.476158 30.959082 42.805803 35.032833 -11.565529 1.077948 -9.694615 8.257476 -23.115136 0.000000 0.000000 0.000000 0.000003 -0.000007 -0.000000 -38.027505 -8.660794 -25.615644 21.988355 11.148260 -3.918833 5.924854 13.611245 23.357813 -0.000000 0.000000 -0.000000 -0.000000 -0.000000 -0.000004 5.385739 -2.178501 -8.023263 2.771262 -0.563897 -1.076319 2.777361 -0.526628 -1.085017 -2.405943 1.274098 0.847145 -2.405941 1.274083 0.847148 0.000001 -0.000000 -0.000000 -2.406011 1.274084 0.847148 -2.405872 1.274106 0.847145 -0.000000 0.000000 0.000001 0.000001 -0.000000 -0.000001 5.523682 -2.173155 12.243788 -41.919279 5.652336 2.202113 0.064107 -13.136956 -0.284904 -49.498603 -3.474580 0.031507 40.109941 -15.297214 -0.360450 5.639913 28.097740 11.338743 0.000002 -0.000003 -0.000003 6.882286 2.840018 -61.140500 8.247968 7.640049 -89.897932 -0.000001 0.000003 0.000002 -2.345528 4.688828 -62.655265 8.754160 9.897053 -87.051266 -0.000002 0.000001 0.000003 -9.042487 10.045585 -60.766178 8.524045 9.508858 -66.892947 -0.000000 -0.000001 0.000000 -17.946785 14.755022 -51.485915 8.868325 8.666964 -84.811989 -0.000001 -0.000002 -0.000002 -0.000001 -0.000001 -0.000000 -0.000001 -0.000001 -0.000000 -0.000002 -0.000001 0.000000 0.000000 0.000000 -0.000001 -0.000000 0.000000 -0.000001 0.000000 0.000000 -0.000001 -0.000002 0.000000 -0.000001 -2.480389 1.866594 -16.643230 -51.815803 54.140277 47.365227 -0.772591 130.490149 1.814556 -72.098446 -0.115880 -24.465697 0.277501 -1.521515 -1.570514 7.168986 -41.689648 -15.773526 -0.000003 -0.000002 -0.000001 6.412836 -12.738408 14.389574 9.941757 -7.465160 101.743242 0.000001 0.000004 -0.000000 2.653211 -11.302322 44.730950 9.916092 -9.880658 94.351195 0.000002 0.000001 -0.000000 2.140170 -7.454460 61.765039 9.609270 -8.992477 89.388701 -0.000001 -0.000001 -0.000001 -4.886633 -23.798158 68.396169 13.518265 -7.949254 112.864935 -0.000003 0.000003 0.000001 0.000000 0.000000 -0.000000 0.000000 -0.000000 -0.000000 0.000000 -0.000000 -0.000000 -0.000000 0.000003 -0.000000 -0.000000 0.000003 -0.000000 -0.000000 0.000003 -0.000000 0.000000 0.000003 -0.000000 -0.000001 0.000000 0.000001 -0.000001 0.000000 0.000001 -0.000001 0.000000 0.000001 -0.000001 0.000000 0.000001 -0.000001 0.000000 0.000001 -0.000001 0.000000 0.000001 -0.000001 0.000000 0.000001 -0.000000 -0.000000 -0.000001 -0.000000 0.000000 0.000000 
-0.033333 86.159912 -0.679552 -60.528050 -92.852658 -60.972880 -0.000000 -0.000000 -0.000000 -31.463430 30.965742 42.787894 35.017547 -11.565702 1.087731 -9.685601 8.256783 -23.116437 -0.000000 0.000000 -0.000000 0.000003 0.000005 0.000002 -38.010839 -8.657633 -25.627093 21.974554 11.141072 -3.908235 5.929360 13.610667 23.356764 0.000000 0.000000 -0.000000 -0.000001 0.000000 0.000001 5.389493 -2.177895 -8.018254 2.770428 -0.576445 -1.075723 2.777965 -0.546934 -1.081946 -2.403456 1.267420 0.848480 -2.403459 1.267398 0.848482 0.000001 0.000000 -0.000001 -2.403530 1.267412 0.848483 -2.403390 1.267419 0.848479 0.000000 -0.000000 0.000000 0.000001 0.000000 -0.000001 5.535948 -2.153913 12.285028 -41.932051 5.710413 2.170943 0.070654 -13.142515 -0.283217 -49.551872 -3.487766 0.031472 40.109944 -15.297211 -0.360449 5.639920 28.097749 11.338742 0.000002 0.000004 -0.000001 6.882289 2.840016 -61.140500 8.247962 7.640050 -89.897932 0.000002 0.000001 0.000001 -2.345523 4.688826 -62.655258 8.754160 9.897054 -87.051266 -0.000003 0.000001 0.000002 -9.042485 10.045587 -60.766171 8.524044 9.508857 -66.892940 -0.000000 -0.000001 0.000002 -17.946786 14.755020 -51.485922 8.868324 8.666964 -84.811989 -0.000001 0.000002 -0.000004 -0.000001 0.000001 -0.000000 -0.000001 0.000001 -0.000000 -0.000002 0.000001 -0.000000 -0.000001 0.000000 0.000000 -0.000001 0.000000 0.000000 -0.000001 0.000000 0.000000 -0.000001 -0.000000 0.000000 -2.482175 1.852233 -16.650709 -51.874839 54.138729 47.397220 -0.753157 130.499193 1.799608 -72.124113 -0.115258 -24.456496 0.277508 -1.521516 -1.570515 7.168989 -41.689648 -15.773528 0.000001 0.000001 0.000001 6.412835 -12.738405 14.389574 9.941755 -7.465160 101.743242 -0.000002 -0.000003 -0.000002 2.653211 -11.302325 44.730946 9.916092 -9.880657 94.351188 0.000001 -0.000000 0.000002 2.140173 -7.454460 61.765032 9.609271 -8.992476 89.388701 0.000002 0.000001 0.000001 -4.886633 -23.798153 68.396176 13.518260 -7.949255 112.864942 -0.000001 -0.000007 -0.000002 -0.000000 -0.000001 -0.000000 -0.000000 -0.000001 -0.000000 -0.000000 -0.000001 -0.000000 0.000000 -0.000001 0.000000 0.000000 0.000000 0.000000 0.000000 -0.000001 0.000000 0.000000 -0.000000 0.000000 -0.000000 -0.000000 -0.000000 -0.000000 -0.000000 -0.000000 -0.000000 -0.000000 -0.000000 -0.000000 -0.000000 -0.000000 -0.000000 -0.000000 -0.000000 -0.000000 -0.000000 -0.000000 -0.000000 -0.000000 -0.000000 -0.000001 0.000000 0.000000 -0.000000 -0.000000 -0.000000 
